#N canvas 401 50 798 825 10;
#X obj 100 81 mrpeach/udpreceive 50101;
#X obj 100 124 mrpeach/unpackOSC;
#X obj 265 107 route from;
#X obj 265 135 unpack 0 0 0 0 0;
#X floatatom 346 165 5 0 0 0 - - -, f 5;
#X obj 270 529 tgl 15 0 empty empty empty 17 7 0 10 -262144 -1 -1 0
1;
#X obj 289 529 tgl 15 0 empty empty empty 17 7 0 10 -262144 -1 -1 0
1;
#X obj 309 529 tgl 15 0 empty empty empty 17 7 0 10 -262144 -1 -1 0
1;
#X obj 328 529 tgl 15 0 empty empty empty 17 7 0 10 -262144 -1 -1 0
1;
#N canvas 720 236 731 532 bitShit 0;
#X obj 59 140 expr ($f1 >> 0) & 1;
#X obj 82 161 expr ($f1 >> 1) & 1;
#X obj -14 36 inlet;
#X obj 102 183 expr ($f1 >> 2) & 1;
#X obj 122 205 expr ($f1 >> 3) & 1;
#X obj 142 227 expr ($f1 >> 4) & 1;
#X obj 162 249 expr ($f1 >> 5) & 1;
#X obj 182 271 expr ($f1 >> 6) & 1;
#X obj 202 293 expr ($f1 >> 7) & 1;
#X obj 222 315 expr ($f1 >> 8) & 1;
#X obj 242 337 expr ($f1 >> 9) & 1;
#X obj 262 359 expr ($f1 >> 10) & 1;
#X obj 282 381 expr ($f1 >> 11) & 1;
#X obj 302 403 expr ($f1 >> 12) & 1;
#X obj -135 474 outlet;
#X obj -82 474 outlet;
#X obj -31 473 outlet;
#X obj 22 474 outlet;
#X obj 72 474 outlet;
#X obj 122 467 outlet;
#X obj 175 464 outlet;
#X obj 228 467 outlet;
#X obj 279 470 outlet;
#X obj 337 473 outlet;
#X obj 393 472 outlet;
#X obj 450 474 outlet;
#X obj 507 477 outlet;
#X connect 0 0 14 0;
#X connect 1 0 15 0;
#X connect 2 0 0 0;
#X connect 2 0 1 0;
#X connect 2 0 3 0;
#X connect 2 0 4 0;
#X connect 2 0 5 0;
#X connect 2 0 6 0;
#X connect 2 0 7 0;
#X connect 2 0 8 0;
#X connect 2 0 9 0;
#X connect 2 0 10 0;
#X connect 2 0 11 0;
#X connect 2 0 12 0;
#X connect 2 0 13 0;
#X connect 3 0 16 0;
#X connect 4 0 17 0;
#X connect 5 0 18 0;
#X connect 6 0 19 0;
#X connect 7 0 20 0;
#X connect 8 0 21 0;
#X connect 9 0 22 0;
#X connect 10 0 23 0;
#X connect 11 0 24 0;
#X connect 12 0 25 0;
#X connect 13 0 26 0;
#X restore 270 507 pd bitShit -----------------------;
#X obj 348 529 tgl 15 0 empty empty empty 17 7 0 10 -262144 -1 -1 0
1;
#X obj 367 529 tgl 15 0 empty empty empty 17 7 0 10 -262144 -1 -1 0
1;
#X obj 387 529 tgl 15 0 empty empty empty 17 7 0 10 -262144 -1 -1 0
1;
#X obj 407 529 tgl 15 0 empty empty empty 17 7 0 10 -262144 -1 -1 0
1;
#X obj 426 529 tgl 15 0 empty empty empty 17 7 0 10 -262144 -1 -1 0
1;
#X obj 446 529 tgl 15 0 empty empty empty 17 7 0 10 -262144 -1 -1 0
1;
#X obj 465 529 tgl 15 0 empty empty empty 17 7 0 10 -262144 -1 -1 0
1;
#X obj 485 529 tgl 15 0 empty empty empty 17 7 0 10 -262144 -1 -1 0
1;
#X obj 505 529 tgl 15 0 empty empty empty 17 7 0 10 -262144 -1 -1 1
1;
#X text 64 422 ASCII for C D E F H I J K M N O P Q;
#X obj 190 254 swap;
#X obj 190 276 pack;
#X obj 441 464 unpack;
#N canvas 1069 51 531 825 note 0;
#X obj 94 86 *~;
#X obj 118 58 line~;
#X msg 137 27 0 100;
#X text 175 55 envelope;
#X text 175 68 generator;
#X obj 114 -46 select 1 0;
#X obj 313 -54 mtof;
#X obj 237 -101 inlet;
#X obj 48 -104 inlet;
#X obj 312 -30 osc~ 220;
#X msg 118 2 0.1 10;
#X obj 113 189 outlet~;
#X connect 0 0 11 0;
#X connect 1 0 0 1;
#X connect 2 0 1 0;
#X connect 5 0 10 0;
#X connect 5 1 2 0;
#X connect 6 0 9 0;
#X connect 7 0 6 0;
#X connect 8 0 5 0;
#X connect 9 0 0 0;
#X connect 10 0 1 0;
#X restore 324 659 pd note;
#N canvas 535 50 531 825 note 0;
#X obj 94 86 *~;
#X obj 118 58 line~;
#X msg 137 27 0 100;
#X text 175 55 envelope;
#X text 175 68 generator;
#X obj 114 -46 select 1 0;
#X obj 89 139 dac~ 1 2;
#X obj 313 -54 mtof;
#X obj 237 -101 inlet;
#X obj 48 -104 inlet;
#X obj 312 -30 osc~ 220;
#X msg 118 2 0.1 10;
#X connect 0 0 6 0;
#X connect 0 0 6 1;
#X connect 1 0 0 1;
#X connect 2 0 1 0;
#X connect 5 0 11 0;
#X connect 5 1 2 0;
#X connect 7 0 10 0;
#X connect 8 0 7 0;
#X connect 9 0 5 0;
#X connect 10 0 0 0;
#X connect 11 0 1 0;
#X restore 239 653 pd note;
#N canvas 1015 191 553 479 note 1;
#X obj 94 86 *~;
#X obj 118 58 line~;
#X text 175 55 envelope;
#X text 175 68 generator;
#X obj 114 -46 select 1 0;
#X obj 86 179 dac~ 1 2;
#X obj 313 -54 mtof;
#X obj 237 -101 inlet;
#X obj 48 -104 inlet;
#X obj 312 -30 osc~ 220;
#X msg 118 2 0.1 10;
#X msg 137 27 0 10;
#X obj 157 125 *~;
#X obj 447 -60 inlet;
#X connect 1 0 0 1;
#X connect 4 0 10 0;
#X connect 4 1 11 0;
#X connect 6 0 9 0;
#X connect 7 0 6 0;
#X connect 8 0 4 0;
#X connect 9 0 0 0;
#X connect 9 0 12 0;
#X connect 10 0 1 0;
#X connect 11 0 1 0;
#X connect 12 0 5 0;
#X connect 12 0 5 1;
#X connect 13 0 12 1;
#X restore 142 652 pd note;
#N canvas 802 51 396 825 note 0;
#X obj 94 86 *~;
#X obj 118 58 line~;
#X msg 137 27 0 100;
#X text 175 55 envelope;
#X text 175 68 generator;
#X obj 114 -46 select 1 0;
#X obj 89 139 dac~ 1 2;
#X obj 313 -54 mtof;
#X obj 237 -101 inlet;
#X obj 48 -104 inlet;
#X obj 312 -30 osc~ 220;
#X msg 118 2 0.1 10;
#X connect 0 0 6 0;
#X connect 0 0 6 1;
#X connect 1 0 0 1;
#X connect 2 0 1 0;
#X connect 5 0 11 0;
#X connect 5 1 2 0;
#X connect 7 0 10 0;
#X connect 8 0 7 0;
#X connect 9 0 5 0;
#X connect 10 0 0 0;
#X connect 11 0 1 0;
#X restore 412 648 pd note;
#X obj 251 746 dac~ 1 2;
#X obj 401 745 *~;
#X obj 742 654 noise~;
#X obj 505 253 swap;
#X obj 505 275 pack;
#X floatatom 289 398 5 0 0 0 - - -, f 5;
#X floatatom 686 339 5 0 0 0 - - -, f 5;
#X obj 88 438 route 67 68 69 70 72 73 74 75 77 78 79 80 81 13 18;
#X floatatom 536 516 5 0 0 0 - - -, f 5;
#X obj 596 454 tgl 15 0 empty empty empty 17 7 0 10 -262144 -1 -1 0
1;
#N canvas 1069 51 531 825 note 0;
#X obj 94 86 *~;
#X obj 118 58 line~;
#X text 175 55 envelope;
#X text 175 68 generator;
#X obj 114 -46 select 1 0;
#X obj 237 -101 inlet;
#X obj 48 -104 inlet;
#X obj 312 -30 osc~ 220;
#X msg 118 2 0.1 10;
#X obj 224 123 outlet~;
#X msg 137 27 0 10;
#X connect 0 0 9 0;
#X connect 1 0 0 1;
#X connect 4 0 8 0;
#X connect 4 1 10 0;
#X connect 5 0 7 0;
#X connect 6 0 4 0;
#X connect 7 0 0 0;
#X connect 8 0 1 0;
#X connect 10 0 1 0;
#X restore 671 618 pd note;
#X obj 657 476 tgl 15 0 empty empty empty 17 7 0 10 -262144 -1 -1 0
1;
#X floatatom 633 543 5 0 0 0 - - -, f 5;
#X obj 422 720 *~ 1;
#X msg 485 670 1;
#X obj 706 416 * 7;
#X obj 537 402 < 93;
#X obj 655 437 < 92;
#N canvas 641 50 603 330 note 0;
#X obj 94 86 *~;
#X obj 118 58 line~;
#X msg 137 27 0 100;
#X text 175 55 envelope;
#X text 175 68 generator;
#X obj 114 -46 select 1 0;
#X obj 89 139 dac~ 1 2;
#X obj 313 -54 mtof;
#X obj 237 -101 inlet;
#X obj 48 -104 inlet;
#X obj 312 -30 osc~ 220;
#X msg 118 2 0.1 10;
#X connect 0 0 6 0;
#X connect 0 0 6 1;
#X connect 1 0 0 1;
#X connect 2 0 1 0;
#X connect 5 0 11 0;
#X connect 5 1 2 0;
#X connect 7 0 10 0;
#X connect 8 0 7 0;
#X connect 9 0 5 0;
#X connect 10 0 0 0;
#X connect 11 0 1 0;
#X restore 552 647 pd note;
#X msg 345 624 61, f 5;
#X msg 578 618 57;
#X msg 423 621 59;
#X msg 264 623 64;
#X obj 506 302 route 72 18;
#X obj 100 171 mrpeach/routeOSC /touch /raw;
#X obj 306 318 unpack f f f f f f f f f f f f f f f f f f f f f f f
f f f;
#X obj 226 357 - 90;
#X obj 332 370 / 45;
#X obj 379 363 * -1;
#X obj 375 392 + 1;
#X msg 199 621 88;
#X connect 0 0 1 0;
#X connect 0 1 2 0;
#X connect 1 0 51 0;
#X connect 2 0 3 0;
#X connect 3 3 4 0;
#X connect 4 0 20 1;
#X connect 4 0 30 1;
#X connect 5 0 57 0;
#X connect 5 0 25 0;
#X connect 6 0 49 0;
#X connect 6 0 24 0;
#X connect 7 0 46 0;
#X connect 7 0 23 0;
#X connect 8 0 48 0;
#X connect 8 0 26 0;
#X connect 9 0 5 0;
#X connect 9 1 6 0;
#X connect 9 2 7 0;
#X connect 9 3 8 0;
#X connect 9 4 10 0;
#X connect 9 5 11 0;
#X connect 9 6 12 0;
#X connect 9 7 13 0;
#X connect 9 8 14 0;
#X connect 9 9 15 0;
#X connect 9 10 16 0;
#X connect 9 11 17 0;
#X connect 9 12 18 0;
#X connect 9 12 35 0;
#X connect 10 0 47 0;
#X connect 10 0 45 0;
#X connect 20 0 21 0;
#X connect 20 1 21 1;
#X connect 21 0 34 0;
#X connect 23 0 27 0;
#X connect 30 0 31 0;
#X connect 30 1 31 1;
#X connect 31 0 50 0;
#X connect 32 0 25 2;
#X connect 33 0 42 0;
#X connect 33 0 43 0;
#X connect 33 0 44 0;
#X connect 34 4 9 0;
#X connect 34 15 22 0;
#X connect 36 0 47 0;
#X connect 38 0 37 0;
#X connect 40 0 27 1;
#X connect 40 0 27 0;
#X connect 41 0 40 1;
#X connect 42 0 37 1;
#X connect 43 0 36 0;
#X connect 44 0 38 0;
#X connect 46 0 23 1;
#X connect 47 0 45 1;
#X connect 48 0 26 1;
#X connect 49 0 24 1;
#X connect 50 1 33 0;
#X connect 51 0 20 0;
#X connect 51 1 30 0;
#X connect 51 1 52 0;
#X connect 52 0 53 0;
#X connect 53 0 54 0;
#X connect 54 0 55 0;
#X connect 55 0 56 0;
#X connect 56 0 32 0;
#X connect 57 0 25 1;
