#N canvas 1083 268 450 300 10;
#X obj 57 67 mrpeach/tcpreceive 50101;
#X floatatom 222 93 5 0 0 0 - - -, f 5;
#X floatatom 139 136 5 0 0 0 - - -, f 5;
#X floatatom 178 136 5 0 0 0 - - -, f 5;
#X floatatom 217 136 5 0 0 0 - - -, f 5;
#X floatatom 256 136 5 0 0 0 - - -, f 5;
#X floatatom 295 136 5 0 0 0 - - -, f 5;
#X obj 139 112 unpack 0 0 0 0 0;
#X obj 57 153 print;
#X connect 0 0 8 0;
#X connect 0 1 7 0;
#X connect 0 2 1 0;
#X connect 7 0 2 0;
#X connect 7 1 3 0;
#X connect 7 2 4 0;
#X connect 7 3 5 0;
#X connect 7 4 6 0;
